<?xml version="1.0" encoding="UTF-8"?>
<svg id="Layer_1" data-name="Layer 1" xmlns="http://www.w3.org/2000/svg" xmlns:xlink="http://www.w3.org/1999/xlink" viewBox="0 0 258 43">
  <defs>
    <clipPath id="clippath">
      <rect x=".5" width="257" height="43" style="fill: none;"/>
    </clipPath>
  </defs>
  <g style="clip-path: url(#clippath);">
    <g>
      <path d="M12.5,43H.5V0h43v12H12.5v31Z" style="fill: #679bff; stroke: #679bff;"/>
      <path d="M60.5,0h12v43H29.5v-12h31V0Z" style="fill: #679bff; stroke: #679bff;"/>
      <path d="M112.61,40l-23.36-25.73v25.73h-4.83V4.01h1.83l23.36,26.05V4.01h4.83v35.99h-1.83ZM126.25,40V4.01h24.65v4.57h-19.82v26.86h19.82v4.57h-24.65ZM129.31,23.83v-4.57h19.28v4.57h-19.28ZM176.31,40.81c-2.72,0-5.23-.48-7.52-1.45-2.29-1-4.3-2.36-6.02-4.08-1.72-1.72-3.06-3.71-4.03-5.96-.93-2.29-1.4-4.73-1.4-7.3s.46-5,1.4-7.25c.97-2.29,2.31-4.3,4.03-6.02,1.72-1.72,3.72-3.06,6.02-4.03,2.29-1,4.8-1.5,7.52-1.5s5.23.5,7.52,1.5c2.29.97,4.3,2.31,6.02,4.03,1.72,1.72,3.04,3.72,3.97,6.02.97,2.26,1.45,4.67,1.45,7.25s-.48,5.01-1.45,7.3c-.93,2.26-2.26,4.24-3.97,5.96-1.72,1.72-3.72,3.08-6.02,4.08-2.29.97-4.8,1.45-7.52,1.45ZM176.31,36.08c2.68,0,5.08-.61,7.2-1.83,2.11-1.25,3.78-2.94,4.99-5.05s1.83-4.51,1.83-7.2-.61-5.08-1.83-7.2c-1.22-2.15-2.88-3.83-4.99-5.05-2.11-1.22-4.51-1.83-7.2-1.83s-5.08.61-7.2,1.83c-2.11,1.22-3.78,2.9-4.99,5.05-1.22,2.11-1.83,4.51-1.83,7.2s.61,5.08,1.83,7.2c1.22,2.11,2.88,3.8,4.99,5.05,2.11,1.22,4.51,1.83,7.2,1.83ZM210.9,40V12.29c-1.07.93-2.18,1.58-3.33,1.93-1.15.36-2.29.64-3.44.86v-4.62c2.08-.54,3.88-1.41,5.42-2.63,1.54-1.22,2.81-2.49,3.81-3.81h2.36v35.99h-4.83ZM203.75,40v-4.3h19.5v4.3h-19.5ZM245.38,40v-7.95h-16.44v-1.77c2.04-2.18,4.21-4.62,6.5-7.3,2.33-2.69,4.6-5.6,6.82-8.75,2.26-3.19,4.31-6.59,6.18-10.21h1.77v23.96h5.64v4.08h-5.64v7.95h-4.83ZM236.46,27.97h8.92v-12.14c-1.43,2.22-2.88,4.37-4.35,6.45-1.47,2.04-2.99,3.94-4.57,5.69Z" style="fill: #fff;"/>
    </g>
  </g>
</svg>