<svg width="258" height="43" viewBox="0 0 258 43" fill="none" xmlns="http://www.w3.org/2000/svg">
<g clip-path="url(#clip0_2_4)">
<path d="M12.5 43H0.5V0H43.5V12H12.5V43Z" fill="#679BFF" stroke="#679BFF"/>
<path d="M60.5 0H72.5V43H29.5V31H60.5V0Z" fill="#679BFF" stroke="#679BFF"/>
<path d="M112.606 40L89.2422 14.2725V40H84.4082V4.01367H86.2344L109.599 30.0635V4.01367H114.433V40H112.606ZM126.249 40V4.01367H150.902V8.5791H131.083V35.4346H150.902V40H126.249ZM129.311 23.833V19.2676H148.593V23.833H129.311ZM176.308 40.8057C173.586 40.8057 171.08 40.3223 168.788 39.3555C166.496 38.3529 164.491 36.9922 162.772 35.2734C161.054 33.5547 159.711 31.5674 158.744 29.3115C157.813 27.0199 157.348 24.585 157.348 22.0068C157.348 19.4287 157.813 17.0117 158.744 14.7559C159.711 12.4642 161.054 10.459 162.772 8.74023C164.491 7.02148 166.496 5.67871 168.788 4.71191C171.08 3.70931 173.586 3.20801 176.308 3.20801C179.029 3.20801 181.535 3.70931 183.827 4.71191C186.119 5.67871 188.124 7.02148 189.843 8.74023C191.562 10.459 192.886 12.4642 193.817 14.7559C194.784 17.0117 195.268 19.4287 195.268 22.0068C195.268 24.585 194.784 27.0199 193.817 29.3115C192.886 31.5674 191.562 33.5547 189.843 35.2734C188.124 36.9922 186.119 38.3529 183.827 39.3555C181.535 40.3223 179.029 40.8057 176.308 40.8057ZM176.308 36.0791C178.993 36.0791 181.392 35.4704 183.505 34.2529C185.618 32.9997 187.283 31.3167 188.5 29.2041C189.717 27.0915 190.326 24.6924 190.326 22.0068C190.326 19.3213 189.717 16.9222 188.5 14.8096C187.283 12.6611 185.618 10.9782 183.505 9.76074C181.392 8.54329 178.993 7.93457 176.308 7.93457C173.622 7.93457 171.223 8.54329 169.11 9.76074C166.998 10.9782 165.333 12.6611 164.115 14.8096C162.898 16.9222 162.289 19.3213 162.289 22.0068C162.289 24.6924 162.898 27.0915 164.115 29.2041C165.333 31.3167 166.998 32.9997 169.11 34.2529C171.223 35.4704 173.622 36.0791 176.308 36.0791ZM210.897 40V12.2852C209.823 13.2161 208.713 13.8607 207.567 14.2188C206.422 14.5768 205.276 14.8633 204.13 15.0781V10.459C206.207 9.92188 208.015 9.0446 209.555 7.82715C211.094 6.6097 212.366 5.33854 213.368 4.01367H215.731V40H210.897ZM203.754 40V35.7031H223.251V40H203.754ZM245.38 40V32.0508H228.944V30.2783C230.985 28.0941 233.152 25.6592 235.443 22.9736C237.771 20.2881 240.045 17.3698 242.265 14.2188C244.521 11.0319 246.579 7.63021 248.441 4.01367H250.214V27.9688H255.854V32.0508H250.214V40H245.38ZM236.464 27.9688H245.38V15.8301C243.948 18.0501 242.497 20.1986 241.029 22.2754C239.561 24.3164 238.039 26.2142 236.464 27.9688Z" fill="#1E1E1E"/>
</g>
<defs>
<clipPath id="clip0_2_4">
<rect width="257" height="43" fill="white" transform="translate(0.5)"/>
</clipPath>
</defs>
</svg>
